<?xml version="1.0" encoding="UTF-8"?><svg xmlns="http://www.w3.org/2000/svg" viewBox="0 0 245.25 46.34"><defs><style>.d{fill:#fff;}.e{fill:none;stroke:#fff;}</style></defs><g id="a"/><g id="b"><g id="c"><g><path class="e" d="M26.6,22.55c-.4,5.9-1.55,10.05-3.9,13.65-2.65,4.2-6.3,6.85-12.85,9.5-1.6-3.1-2.35-4.15-4.95-6.65,6.2-1.9,9.9-4.5,11.95-8.45,1.05-2,1.7-4.75,1.85-8.05H7.6c-3.35,0-5.1,.05-7.1,.3v-7.2c2.3,.25,3.8,.35,7.2,.35h28.2c3.55,0,5-.05,7.4-.35v7.15c-2.3-.2-3.15-.25-7.25-.25h-9.45Zm7.25-12.4c-1.85-.2-2.75-.25-7.3-.25H12.7c-3.3,0-5.3,.05-7.1,.25V3c2.3,.3,3.65,.35,7.2,.35h13.6c3.95,0,5.35-.05,7.45-.35v2.95l3.75-1.3c1.7,2.75,2.5,4.5,3.3,7l-4.2,1.6c-.7-2.3-1.75-4.65-2.85-6.5v3.4Zm8.6,.95c-.9-2.65-1.6-4.1-3.25-6.9l4-1.5c1.65,2.55,2.5,4.25,3.35,6.7l-4.1,1.7Z"/><path class="e" d="M77.4,11.2v-3.65c0-3-.05-4.25-.2-5.5h7.55q-.2,2.1-.2,4.85,0,.95-.05,4.3h2.65c3.2,0,4.9-.1,6.8-.35v7.3c-1.75-.15-3.8-.25-6.7-.25h-2.8c-.1,4.85-.15,5.7-.35,7.6-.45,4.55-1.45,7.5-3.5,10.55-2,3-4.8,5.45-8.5,7.35-1.5,.8-2.65,1.3-5.3,2.25-1.35-2.75-2.15-3.9-4.6-6.45,4.8-1.4,7.35-2.6,9.65-4.5,3.5-2.85,4.9-6.05,5.3-11.85,.05-1,.1-2.1,.15-4.95h-11.85v5.5c0,3.65,0,4.2,.2,5.75h-7.75c.15-1.25,.25-3.05,.25-5.85v-5.4h-2.5c-3.5,0-4.45,.05-6.7,.25v-7.3c2.3,.3,3.25,.35,6.85,.35h2.35v-3.55c0-2.55-.05-4.15-.25-5.65h7.8c-.25,1.95-.25,2.4-.25,5.5v3.7h11.95Zm11.2-9c1.4,2.4,2.05,3.95,2.85,6.6l-3.8,1.3c-.7-2.55-1.45-4.35-2.75-6.75l3.7-1.15Zm5.25-1.6c1.3,2.1,2.2,4.15,2.85,6.4l-3.7,1.35c-.7-2.3-1.55-4.35-2.75-6.55l3.6-1.2Z"/><path class="e" d="M141.95,5.95c-1.05,.9-1.15,1-1.9,1.8-3.8,3.95-7.6,7.25-11.7,10.2v19.7c0,4,.05,5.7,.25,7.4h-8.25c.25-1.9,.3-3.15,.3-7.25v-15.2c-5.2,3.1-8.05,4.4-17.1,7.75-1.35-3.1-1.95-4.1-4.05-6.8,10.1-2.8,18.45-6.9,26.35-13,4.4-3.4,7.75-6.75,9.25-9.25l6.85,4.65Z"/><path class="e" d="M157.2,4.45c6.45,3.9,9.3,6,13.3,9.7l-5.05,6.55c-4.15-4.4-8.35-7.7-13.15-10.35l4.9-5.9Zm-4.7,31c4.6-.3,10.3-1.65,14.9-3.65,6.35-2.65,10.8-6.4,14.7-12.25,2.25-3.35,3.6-6.05,5.05-9.95,2.35,2.75,3.25,3.6,6.35,5.8-4.95,10.7-10.85,17.3-19.55,21.9-4,2.1-9.75,4.15-14.55,5.2q-1.25,.25-2.2,.45c-1.15,.25-1.45,.35-2.5,.7l-2.2-8.2Z"/><path class="d" d="M200.3,6.6c1.15,.05,1.75,.05,1.95,.05,.95,0,1.25,0,8.35-.45,3.45-.25,12.05-.65,25.8-1.25,4.4-.2,4.7-.25,5.6-.45l.4,7.65c-.6-.05-.75-.05-1.2-.05-3.25,0-7.3,1.15-10.65,3.05-5.65,3.2-9.05,7.85-9.05,12.4,0,3.7,2.3,6.4,6.5,7.6,2.3,.65,5.55,1.15,7.4,1.15,.3,0,.65,0,1.25-.05l-1.05,8.1c-.65-.15-.85-.15-1.75-.25-5.6-.65-9.1-1.5-12.1-3.1-5.2-2.7-7.9-7.05-7.9-12.75,0-6.75,3.6-12.25,10.55-16.25-5,.55-5.2,.6-16.35,1.45-2.75,.2-5.45,.55-7.35,.9l-.4-7.75Zm34.85,17.45c-1.25-2.8-2.4-4.65-4.15-6.95l4.25-1.9c1.75,2.1,2.85,3.8,4.2,6.75l-4.3,2.1Zm5.85-2.75c-1.25-2.65-2.35-4.5-4.05-6.7l4.15-1.8c1.85,2.15,2.55,3.25,4.15,6.4l-4.25,2.1Z"/></g></g></g></svg>