<?xml version="1.0" encoding="UTF-8"?><svg xmlns="http://www.w3.org/2000/svg" viewBox="0 0 246.4 48.18"><defs><style>.d{fill:#fff;}.e{fill:none;stroke:#fff;}</style></defs><g id="a"/><g id="b"><g id="c"><g><path class="e" d="M25.6,24.24c-.55,12.35-5.25,18.95-16.55,23.3-1.2-2.5-2.05-3.6-4.1-5.55,9.8-3.1,13.7-8.05,14.05-17.75H6.85c-3.9,0-4.65,.05-6.35,.25v-5.95c1.75,.3,2.75,.35,6.45,.35h29.25c3.7,0,4.7-.05,6.45-.35v5.95c-1.7-.2-2.45-.25-6.35-.25h-10.7Zm7.55-12.25c-1.55-.2-2.25-.25-6.35-.25H11.9c-4.1,0-4.75,.05-6.35,.25V5.89c1.7,.3,2.7,.35,6.45,.35h14.7c3.8,0,4.8-.05,6.45-.35v6.1Zm2.9-9.35c1.9,2.6,3.05,4.6,4.45,7.9l-3.75,1.4c-1.4-3.35-2.55-5.4-4.4-8l3.7-1.3Zm7.15,7.1c-1.15-2.85-2.6-5.4-4.3-7.75l3.6-1.3c2,2.65,3.2,4.65,4.4,7.6l-3.7,1.45Z"/><path class="e" d="M78,13.99v-4.15c0-2.65-.05-3.8-.2-4.95h6.4c-.15,1.2-.15,1.55-.15,3.3,0,1.85-.05,3.8-.05,5.8h3.15c3.8,0,4.75-.05,6.55-.35v6.1c-1.7-.2-2.4-.25-6.45-.25h-3.3c-.1,9-.6,12.2-2.45,16.15-2.75,5.4-7.65,9.25-14.85,11.65-.85-2-1.7-3.2-3.75-5.3,7.1-2,11.3-5.15,13.45-10,1.2-3,1.5-5.45,1.6-12.5h-12.95v7.45c0,2.25,.05,3,.2,4.2h-6.5c.15-1.05,.15-1.6,.2-4.3v-7.35h-3.05c-4,0-4.7,.05-6.4,.25v-6.1c1.8,.3,2.75,.35,6.5,.35h2.95v-5c0-2.55-.05-3.2-.25-4.45h6.55c-.2,1.65-.2,1.85-.2,4.25v5.2h13ZM87.55,1.99c1.5,2.45,2.6,4.85,3.45,7.8l-3.45,1c-.95-3.2-2-5.65-3.4-7.85l3.4-.95Zm6.15,7.15c-.75-2.55-1.9-5.1-3.4-7.55l3.2-1c1.35,2.1,2.4,4.45,3.4,7.5l-3.2,1.05Z"/><path class="e" d="M141,7.84c-.85,.75-1.1,.95-1.85,1.75-3.75,3.9-7.5,7.15-11.8,10.3v21.35c0,2.75,.05,4.2,.25,5.55h-7c.25-1.45,.3-2.45,.3-5.4V23.79c-5.85,3.5-8.65,4.8-17.85,8.1-1.05-2.6-1.6-3.45-3.35-5.7,9.9-2.7,18.3-6.85,26.25-13,4.45-3.45,7.85-6.9,9.3-9.35l5.75,4Z"/><path class="e" d="M153.05,38.44c4.3-.25,10.25-1.7,14.8-3.7,6.25-2.7,10.9-6.55,14.85-12.25,2.2-3.2,3.6-5.95,5.1-10,1.95,2.35,2.75,3.1,5.3,4.9-4.25,9.15-9,15.05-15.85,19.6-5.1,3.4-11.3,5.85-19.05,7.5-2,.4-2.15,.45-3.3,.85l-1.85-6.9Zm4.25-31.05c5.95,3.7,9.05,6,12.9,9.65l-4.3,5.45c-4-4.25-8.1-7.55-12.75-10.15l4.15-4.95Z"/><path class="d" d="M200.75,9.54c1.1,.05,1.65,.05,1.9,.05q.9,0,8.25-.5c3.65-.2,12.2-.65,25.55-1.3,4.1-.2,4.35-.2,5.15-.4l.35,6.35q-.55-.05-1.05-.05c-3,0-6.7,1-9.9,2.7-6.35,3.3-10.1,8.3-10.1,13.35,0,3.9,2.45,6.9,6.65,8.15,2.45,.75,5.65,1.3,7.45,1.3,.05,0,.5,0,1-.05l-.9,6.8c-.65-.15-.75-.15-1.7-.3-5.5-.7-8.65-1.6-11.7-3.3-4.6-2.6-7.15-6.85-7.15-12.05,0-4.25,1.7-8.45,4.75-11.75,1.9-2.05,3.7-3.4,6.95-5.05-4.05,.6-7.15,.9-16.85,1.6-4.45,.35-6.75,.65-8.3,1l-.35-6.55Zm34.45,9.6c2.2,2.35,3.55,4.25,5.25,7.35l-3.5,1.85c-1.65-3.05-3.05-5.05-5.25-7.45l3.5-1.75Zm7.75,6.05c-1.5-2.75-3.15-5.1-5.1-7.25l3.35-1.75c2.25,2.3,3.65,4.2,5.2,7.05l-3.45,1.95Z"/></g></g></g></svg>