<?xml version="1.0" encoding="utf-8"?>
<!-- Generator: Adobe Illustrator 26.1.0, SVG Export Plug-In . SVG Version: 6.00 Build 0)  -->
<svg version="1.1" id="レイヤー_1" xmlns="http://www.w3.org/2000/svg" xmlns:xlink="http://www.w3.org/1999/xlink" x="0px"
	 y="0px" viewBox="0 0 251 62.2" style="enable-background:new 0 0 251 62.2;" xml:space="preserve">
<style type="text/css">
	.st0{enable-background:new    ;}
	.st1{fill:none;stroke:#FFFFFF;stroke-miterlimit:10;}
	.st2{fill:#FFFFFF;}
</style>
<g id="a">
</g>
<g id="b">
	<g id="c">
		<g class="st0">
			<path class="st1" d="M27.7,24.3c-0.3,5.6-1,9-3,12.8c-2,3.9-5.6,7.5-8.8,9.5c-0.6,0.4-1.1,0.6-1.5,0.6c-0.4,0-0.7-0.2-1.1-0.5
				c-1-1-2.7-2-4.5-2.7c4.9-2.7,7.9-5.1,10-8.9c1.9-3.3,2.4-6,2.6-10.8H12c-2.5,0-5,0.2-7.5,0.3c-0.4,0-0.6-0.3-0.6-1
				c-0.2-1.4-0.4-3.3-0.4-4.8c2.8,0.2,5.6,0.2,8.5,0.2h22.5c3.9,0,6.8-0.1,9.8-0.3c0.5,0,0.5,0.3,0.5,1c0,0.6,0,3.2,0,3.8
				c0,0.7-0.3,0.9-0.8,0.9c-2.6-0.1-6.1-0.2-9.5-0.2H27.7z M17.8,12.7c-2.3,0-4.3,0.1-7.1,0.2c-0.6,0-0.8-0.2-0.9-0.9
				c-0.1-1.2-0.2-3-0.4-4.8c3.5,0.2,6.1,0.2,8.3,0.2H27c2.8,0,6-0.1,8.5-0.2c0.5,0,0.6,0.3,0.6,1c0.1,1.2,0.1,2.5,0,3.7
				c0,0.7-0.1,0.9-0.6,0.9c-2.7-0.1-5.7-0.1-8.4-0.1H17.8z M39.3,4c0.2-0.1,0.4-0.1,0.7,0.2c1.5,1.4,3.1,3.5,4.3,5.8
				c0.1,0.3,0.1,0.5-0.2,0.8l-2.2,1.3c-0.4,0.2-0.6,0.1-0.8-0.2c-1.3-2.5-2.7-4.5-4.5-6.2L39.3,4z M44.1,1.2
				c0.3-0.2,0.5-0.1,0.7,0.2c1.7,1.6,3.3,3.8,4.2,5.6c0.2,0.3,0.2,0.6-0.2,0.9l-2.1,1.4c-0.4,0.2-0.7,0-0.9-0.2
				c-1.1-2.3-2.5-4.3-4.5-6.2L44.1,1.2z"/>
			<path class="st1" d="M86.4,16.9c2.5,0,5.3,0,7.6-0.2c0.6,0,0.6,0.2,0.7,0.8c0.1,1.2,0.1,2.7,0,4c0,0.6-0.1,0.8-0.9,0.8
				c-1.7,0-4.8,0-7.2,0h-2.1c-0.3,7.2-1.4,11.4-3.9,15.4c-2.5,4.2-6.6,7.2-11.8,9.3c-0.7,0.3-1.1,0.5-1.4,0.5c-0.3,0-0.6-0.2-1-0.5
				c-1.5-1.6-2.5-2.3-4.2-3c7.1-2.2,11-4.8,13.5-8.9c2-3.2,2.8-6.7,3-12.8H68.2V24c0,3,0,5.7,0.2,8.3c0,0.5-0.3,0.6-0.9,0.7
				c-1.3,0.1-3,0.1-4.3,0c-0.6,0-1-0.1-0.9-0.7c0.2-2.6,0.3-5.1,0.3-8.2v-1.9H61c-2.7,0-6.7,0.1-8.3,0.2c-0.4,0-0.5-0.3-0.6-1
				c-0.2-1.1-0.2-2.8-0.3-4.9c2.1,0.2,5.4,0.2,9.2,0.2h1.5v-3.7c0-3.2-0.1-4.5-0.6-7.4C64.5,6.2,67,6.4,68,6.7
				c0.6,0.1,0.8,0.3,0.8,0.7c0,0.3-0.1,0.7-0.3,1.1c-0.4,0.9-0.4,1.4-0.4,4.8v3.7h10.8l0.1-4.9c0-2.8-0.1-5.1-0.5-6.9
				c1.9,0.2,4.7,0.5,5.9,0.9c0.7,0.1,0.9,0.4,0.9,0.8c0,0.2,0,0.5-0.2,0.9c-0.4,1-0.4,2.2-0.4,4.4v4.8H86.4z M88.9,4.8
				c0.2-0.1,0.4-0.1,0.7,0.2c1.4,1.4,2.8,3.7,3.9,6c0.1,0.4,0.1,0.5-0.3,0.8l-2.1,1c-0.4,0.2-0.6,0.1-0.8-0.3
				C89.1,10,87.9,7.9,86.2,6L88.9,4.8z M93.6,2.6c0.3-0.2,0.4-0.1,0.7,0.2c1.6,1.7,3.1,4,3.9,5.9c0.1,0.3,0.1,0.6-0.3,0.8l-2,1
				c-0.5,0.2-0.6,0-0.8-0.2c-1-2.3-2.3-4.5-4.1-6.5L93.6,2.6z"/>
			<path class="st1" d="M125.6,35.1c0,3.5,0.1,6.4,0.2,10.4c0,0.7-0.2,0.9-0.8,0.9c-1.6,0.1-3.4,0.1-5,0c-0.6,0-0.8-0.2-0.7-0.8
				c0.1-3.6,0.2-6.8,0.2-10.2V23.7c-4.4,3.7-9.8,7.5-13.8,9.6c-0.2,0.2-0.5,0.2-0.8,0.2c-0.4,0-0.7-0.1-1-0.5
				c-1.2-1.1-2.8-2.1-4.3-3c6.9-3.5,11.2-6.5,15.8-10.2c4-3.3,7.6-6.8,10.7-10.5c1.7-2,2.3-3,3.2-5.2c2.2,1.2,4.5,2.6,5.6,3.5
				c0.3,0.2,0.4,0.5,0.4,0.8c0,0.4-0.3,0.8-0.7,1.1c-0.8,0.5-1.7,1.3-3,2.8c-2,2.4-3.8,4.3-5.9,6.3V35.1z"/>
			<path class="st1" d="M146.8,9.4c0.2-0.2,0.5-0.4,0.7-0.4c0.2,0,0.4,0.1,0.6,0.2c2.5,1.3,6.7,4.4,9.5,7.1c0.3,0.3,0.5,0.5,0.5,0.7
				s-0.1,0.4-0.3,0.6c-0.8,1-2.4,3-3.1,3.8c-0.2,0.2-0.4,0.4-0.6,0.4c-0.2,0-0.4-0.1-0.7-0.4c-3-3.1-6.6-6-10.2-8.2
				C144.4,12,145.9,10.4,146.8,9.4z M151.2,35.8c6.1-3.2,9.4-5.3,14.4-9.3c6.1-5,9.5-8.2,13.7-13.6c0.3,2.5,0.8,4.2,1.4,5.8
				c0.1,0.4,0.2,0.7,0.2,1c0,0.5-0.2,0.9-0.8,1.5c-2.7,3.1-7,7.1-11.5,10.6c-4.2,3.3-8.4,6.1-15.1,9.8c-2.2,1.4-2.9,1.9-3.4,2.3
				c-0.3,0.3-0.6,0.5-0.9,0.5c-0.2,0-0.6-0.2-0.9-0.6c-1.2-1.4-2.8-3.5-4-5.5C147,37.6,148.5,37.1,151.2,35.8z"/>
		</g>
		<g class="st0">
			<path class="st2" d="M226.9,14.5c-6.1,1.2-11.5,2.2-16.8,3.3c-1.9,0.4-2.4,0.5-3.2,0.8c-0.3,0.1-0.7,0.4-1.1,0.4
				c-0.3,0-0.8-0.3-1-0.8c-0.6-1.3-1.2-3.1-1.9-5.4c2.6-0.1,4.1-0.3,8-0.8c6.2-0.9,17.2-2.5,30.1-4.2c0.8-0.1,1,0.2,1,0.5
				c0.2,1.2,0.5,3,0.6,4.4c0,0.6-0.3,0.8-1,0.8c-2.3,0.1-3.9,0.4-6.1,1.1c-8.5,2.9-12.8,8.8-12.8,14.8c0,6.5,4.6,10,13.3,10.5
				c0.8,0,1.1,0.2,1.1,0.8c0,1.3-0.2,3-0.6,4.3c-0.2,0.8-0.3,1.1-0.9,1.1c-8.8,0-18.5-5.1-18.5-15.5c0-7.1,3.5-11.9,9.6-15.9V14.5z
				 M236.8,19.9c0.2-0.2,0.5-0.2,0.8,0.1c1.6,1.2,3.4,3.2,4.8,5.4c0.2,0.3,0.2,0.5-0.1,0.8l-2.1,1.6c-0.4,0.2-0.6,0.2-0.9-0.2
				c-1.5-2.3-3.1-4.2-5-5.8L236.8,19.9z M241.2,16.6c0.3-0.2,0.4-0.2,0.8,0.1c1.8,1.4,3.7,3.4,4.8,5.2c0.2,0.3,0.2,0.6-0.2,0.9
				l-2,1.5c-0.4,0.3-0.7,0.2-0.8-0.1c-1.3-2.2-3-4.1-5-5.8L241.2,16.6z"/>
		</g>
	</g>
</g>
</svg>
