<?xml version="1.0" encoding="utf-8"?>
<!-- Generator: Adobe Illustrator 26.1.0, SVG Export Plug-In . SVG Version: 6.00 Build 0)  -->
<svg version="1.1" id="レイヤー_1" xmlns="http://www.w3.org/2000/svg" xmlns:xlink="http://www.w3.org/1999/xlink" x="0px"
	 y="0px" viewBox="0 0 550.5 149.2" style="enable-background:new 0 0 550.5 149.2;" xml:space="preserve">
<style type="text/css">
	.st0{enable-background:new    ;}
	.st1{fill:none;stroke:#FFFFFF;stroke-miterlimit:10;}
	.st2{fill:#FFFFFF;}
</style>
<g class="st0">
	<path class="st1" d="M27.7,24.3c-0.3,5.6-1,9-3,12.8c-2,3.9-5.6,7.5-8.8,9.5c-0.6,0.4-1.1,0.6-1.5,0.6c-0.4,0-0.7-0.2-1.1-0.5
		c-1-1-2.7-2-4.5-2.7c4.9-2.7,7.9-5.1,10-8.9c1.9-3.3,2.4-6,2.6-10.8H12c-2.5,0-5,0.2-7.5,0.3c-0.4,0-0.6-0.3-0.6-1
		c-0.2-1.4-0.4-3.3-0.4-4.8c2.8,0.2,5.6,0.2,8.5,0.2h22.5c3.9,0,6.8-0.1,9.8-0.3c0.5,0,0.5,0.3,0.5,1c0,0.6,0,3.2,0,3.8
		c0,0.7-0.3,0.9-0.8,0.9c-2.6-0.1-6.1-0.2-9.5-0.2H27.7z M17.8,12.7c-2.3,0-4.3,0.1-7.1,0.2c-0.6,0-0.8-0.2-0.9-0.9
		c-0.1-1.2-0.2-3-0.4-4.8c3.5,0.2,6.1,0.2,8.3,0.2H27c2.8,0,6-0.1,8.5-0.2c0.5,0,0.6,0.3,0.6,1c0.1,1.2,0.1,2.5,0,3.7
		c0,0.7-0.1,0.9-0.6,0.9c-2.7-0.1-5.7-0.1-8.4-0.1H17.8z M39.3,4c0.2-0.1,0.4-0.1,0.7,0.2c1.5,1.4,3.1,3.5,4.3,5.8
		c0.1,0.3,0.1,0.5-0.2,0.8l-2.2,1.3c-0.4,0.2-0.6,0.1-0.8-0.2c-1.3-2.5-2.7-4.5-4.5-6.2L39.3,4z M44.1,1.2c0.3-0.2,0.5-0.1,0.7,0.2
		c1.7,1.6,3.3,3.8,4.2,5.6c0.2,0.3,0.2,0.6-0.2,0.9l-2.1,1.4c-0.4,0.2-0.7,0-0.9-0.2c-1.1-2.3-2.5-4.3-4.5-6.2L44.1,1.2z"/>
	<path class="st1" d="M86.4,16.9c2.5,0,5.3,0,7.6-0.2c0.6,0,0.6,0.2,0.7,0.8c0.1,1.2,0.1,2.7,0,4c0,0.6-0.1,0.8-0.9,0.8
		c-1.7,0-4.8,0-7.2,0h-2.1c-0.3,7.2-1.4,11.4-3.9,15.4c-2.5,4.2-6.6,7.2-11.8,9.3c-0.7,0.3-1.1,0.5-1.4,0.5c-0.3,0-0.6-0.2-1-0.5
		c-1.5-1.6-2.5-2.3-4.2-3c7.1-2.2,11-4.8,13.5-8.9c2-3.2,2.8-6.7,3-12.8H68.2V24c0,3,0,5.7,0.2,8.3c0,0.5-0.3,0.6-0.9,0.7
		c-1.3,0.1-3,0.1-4.3,0c-0.6,0-1-0.1-0.9-0.7c0.2-2.6,0.3-5.1,0.3-8.2v-1.9H61c-2.7,0-6.7,0.1-8.3,0.2c-0.4,0-0.5-0.3-0.6-1
		c-0.2-1.1-0.2-2.8-0.3-4.9c2.1,0.2,5.4,0.2,9.2,0.2h1.5v-3.7c0-3.2-0.1-4.5-0.6-7.4C64.5,6.2,67,6.4,68,6.7
		c0.6,0.1,0.8,0.3,0.8,0.7c0,0.3-0.1,0.7-0.3,1.1c-0.4,0.9-0.4,1.4-0.4,4.8v3.7h10.8l0.1-4.9c0-2.8-0.1-5.1-0.5-6.9
		c1.9,0.2,4.7,0.5,5.9,0.9c0.7,0.1,0.9,0.4,0.9,0.8c0,0.2,0,0.5-0.2,0.9c-0.4,1-0.4,2.2-0.4,4.4v4.8H86.4z M88.9,4.8
		c0.2-0.1,0.4-0.1,0.7,0.2c1.4,1.4,2.8,3.7,3.9,6c0.1,0.4,0.1,0.5-0.3,0.8l-2.1,1c-0.4,0.2-0.6,0.1-0.8-0.3C89.1,10,87.9,7.9,86.2,6
		L88.9,4.8z M93.6,2.6c0.3-0.2,0.4-0.1,0.7,0.2c1.6,1.7,3.1,4,3.9,5.9c0.1,0.3,0.1,0.6-0.3,0.8l-2,1c-0.5,0.2-0.6,0-0.8-0.2
		c-1-2.3-2.3-4.5-4.1-6.5L93.6,2.6z"/>
	<path class="st1" d="M125.6,35.1c0,3.5,0.1,6.4,0.2,10.4c0,0.7-0.2,0.9-0.8,0.9c-1.6,0.1-3.4,0.1-5,0c-0.6,0-0.8-0.2-0.7-0.8
		c0.1-3.6,0.2-6.8,0.2-10.2V23.7c-4.4,3.7-9.8,7.5-13.8,9.6c-0.2,0.2-0.5,0.2-0.8,0.2c-0.4,0-0.7-0.1-1-0.5c-1.2-1.1-2.8-2.1-4.3-3
		c6.9-3.5,11.2-6.5,15.8-10.2c4-3.3,7.6-6.8,10.7-10.5c1.7-2,2.4-3,3.2-5.2c2.2,1.2,4.5,2.6,5.6,3.5c0.3,0.2,0.4,0.5,0.4,0.8
		c0,0.4-0.3,0.8-0.7,1.1c-0.9,0.5-1.6,1.3-3,2.8c-2,2.4-3.8,4.3-5.9,6.3V35.1z"/>
	<path class="st1" d="M146.8,9.4c0.2-0.2,0.5-0.4,0.7-0.4c0.2,0,0.4,0.1,0.6,0.2c2.6,1.3,6.7,4.4,9.6,7.1c0.3,0.3,0.5,0.5,0.5,0.7
		s-0.1,0.4-0.3,0.6c-0.8,1-2.4,3-3.1,3.8c-0.2,0.2-0.4,0.4-0.6,0.4c-0.2,0-0.4-0.1-0.7-0.4c-3-3.1-6.6-6-10.2-8.2
		C144.4,12,145.9,10.4,146.8,9.4z M151.2,35.8c6.1-3.2,9.4-5.3,14.4-9.3c6.1-5,9.5-8.2,13.7-13.6c0.3,2.5,0.8,4.2,1.4,5.8
		c0.1,0.4,0.2,0.7,0.2,1c0,0.5-0.2,0.9-0.8,1.5c-2.6,3.1-7,7.1-11.5,10.6c-4.2,3.3-8.4,6.1-15.1,9.8c-2.2,1.4-2.9,1.9-3.4,2.3
		c-0.3,0.3-0.6,0.5-0.9,0.5c-0.2,0-0.6-0.2-0.9-0.6c-1.2-1.4-2.8-3.5-4-5.5C147,37.6,148.5,37.1,151.2,35.8z"/>
</g>
<g class="st0">
	<path class="st2" d="M226.9,14.5c-6.1,1.2-11.5,2.2-16.8,3.3c-1.9,0.4-2.4,0.5-3.1,0.8c-0.4,0.1-0.7,0.4-1.1,0.4
		c-0.4,0-0.8-0.3-1-0.8c-0.6-1.3-1.2-3.1-1.9-5.4c2.6-0.1,4.1-0.3,8-0.8c6.2-0.9,17.2-2.5,30.1-4.2c0.8-0.1,1,0.2,1,0.5
		c0.2,1.2,0.5,3,0.6,4.4c0,0.6-0.3,0.8-1,0.8c-2.4,0.1-4,0.4-6.1,1.1c-8.5,2.9-12.8,8.8-12.8,14.8c0,6.5,4.6,10,13.3,10.5
		c0.8,0,1.1,0.2,1.1,0.8c0,1.3-0.2,3-0.5,4.3c-0.2,0.8-0.4,1.1-1,1.1c-8.8,0-18.5-5.1-18.5-15.5c0-7.1,3.6-11.9,9.6-15.9V14.5z
		 M236.8,19.9c0.2-0.2,0.5-0.2,0.8,0.1c1.6,1.2,3.4,3.2,4.8,5.4c0.2,0.3,0.2,0.5-0.1,0.8l-2.1,1.6c-0.4,0.2-0.6,0.2-0.9-0.2
		c-1.5-2.3-3.1-4.2-5.1-5.8L236.8,19.9z M241.2,16.6c0.3-0.2,0.4-0.2,0.8,0.1c1.9,1.4,3.6,3.4,4.8,5.2c0.2,0.3,0.2,0.6-0.1,0.9
		l-2,1.5c-0.4,0.3-0.7,0.2-0.9-0.1c-1.4-2.2-3-4.1-5-5.8L241.2,16.6z"/>
</g>
<g class="st0">
	<path class="st2" d="M17,107.7c-2.5,0.2-5.1,0.4-8.4,0.4c-0.9,0-1.1-0.3-1.2-1c-0.1-1-0.3-2.6-0.5-4.4c1.3,0.2,2.6,0.2,3.9,0.2
		c2.1,0,4.2-0.2,6.4-0.4c0-1.7,0.1-3.6,0.1-5.7c0-1.3-0.1-2.8-0.4-4c2.5,0.2,4.6,0.5,6,0.9c0.6,0.1,1,0.5,1,0.9
		c0,0.2-0.1,0.5-0.3,0.8c-0.4,0.6-0.6,1.3-0.7,2c-0.1,1.3-0.2,2.5-0.2,4.1c2.2-0.4,4.3-1.1,6.4-1.8c0.5-0.2,0.8,0,0.9,0.5
		c0.2,1.2,0.3,2.6,0.3,3.9c0,0.5-0.1,0.6-0.6,0.8c-3.3,1-4.2,1.3-7.2,1.9c0,2.4,0,4.8-0.1,7.2c4.7-2,9.1-2.8,12.3-2.8
		c6.2,0,10.7,4,10.7,10c0,6.4-4.1,10.2-10.9,10.2c-1.5,0-3.1-0.2-4.1-0.5c-0.8-0.2-1.1-0.7-1.1-1.5c-0.1-1.1-0.4-2.8-1.5-4.2
		c2.4,0.8,4.4,0.9,6.3,0.9c2.8,0,5.4-1.6,5.4-5.2c0-3.2-2-5-5.5-5c-2.9,0-6.3,0.8-11.5,3.4c0,2.1,0.1,3.8,0.2,6
		c0.1,2.2,0.4,5.4,0.4,6.5c0,0.7,0.1,1.5-0.8,1.7c-1.1,0.3-2.7,0.5-3.7,0.6c-0.6,0-0.8-0.4-1.2-1c-1.4-1.8-4-4.2-7.1-6.4
		c-0.5,0.3-1.1,0.7-1.6,1.1c-0.2,0.2-0.6,0.3-0.9,0.3c-0.4,0-0.8-0.3-1.1-0.8c-0.5-0.9-1.5-3-2.3-4.7c1.3-0.3,3-0.8,4.6-1.8
		c2.2-1.2,4.5-2.5,8.2-4.7V107.7z M12.3,124.9c1.4,0.8,3.1,1.6,4.7,2.2c0.4,0.1,0.5,0.1,0.5-0.4c-0.1-1.3-0.2-3.6-0.3-5.2
		C15.8,122.5,14.1,123.6,12.3,124.9z M36.2,98.7c0.4-0.6,0.5-0.7,0.9-0.6c4.6,1.4,8,3.5,10.6,6.1c0.2,0.2,0.3,0.3,0.3,0.5
		s-0.1,0.3-0.2,0.5c-0.7,1-2,2.5-2.7,3.6c-0.2,0.2-0.9,0.2-1,0c-2.7-3-6.2-4.8-10.2-6.2C34.6,101.2,35.4,99.9,36.2,98.7z"/>
	<path class="st2" d="M60.6,120.8c-4.5,0-6,0.1-6.3,0.1c-0.5,0-0.6,0-0.6-0.5v-4c0-0.5,0.1-0.5,0.6-0.5c0.3,0,1.9,0.1,6.3,0.1h12.7
		v-6H65c-4.9,0-6.6,0.1-6.9,0.1c-0.5,0-0.6-0.1-0.6-0.6v-4c0-0.5,0.1-0.5,0.6-0.5c0.3,0,2,0.1,6.9,0.1h8.3v-6
		c-4.2,0.5-8.4,0.9-12.8,1.2c-1.6,0-1.6,0-2.1-1.5c-0.4-1.3-0.9-2.5-1.5-3.4c6.4-0.2,11.4-0.5,16.8-1.3c4.8-0.7,8.2-1.4,10.9-2
		c1.8-0.5,3.1-1,4.5-1.6c1.4,1.2,2.6,2.6,3.6,3.7c0.3,0.4,0.4,0.5,0.4,1c0,0.2-0.3,0.5-0.8,0.5c-0.7,0-1.3,0.1-2.4,0.4
		c-3.5,1-7.2,1.7-11.2,2.3v6.7h8.5c4.9,0,6.5-0.1,6.8-0.1c0.5,0,0.6,0,0.6,0.5v4c0,0.5-0.1,0.6-0.6,0.6c-0.3,0-2-0.1-6.8-0.1h-8.5v6
		h12.5c4.5,0,6-0.1,6.3-0.1c0.5,0,0.6,0,0.6,0.5v4c0,0.5-0.1,0.5-0.6,0.5c-0.3,0-1.9-0.1-6.3-0.1H78.7v1.7c0,2.4,0.1,4.7,0.1,6.8
		c0,2.2-0.4,3.3-1.6,4.4c-1.1,0.9-3.5,1.2-8.6,1.2c-1.5,0-1.6,0-1.9-1.6c-0.3-1.5-0.8-2.9-1.4-4c2.3,0.3,4.2,0.3,5.8,0.3
		c1.7,0,2.1-0.6,2.1-1.9v-7.1H60.6z"/>
	<path class="st2" d="M108.4,116.2c0-1.6,0-3.5,0-5.4c-0.9,1.2-1.8,2.4-2.8,3.6c-0.4,0.5-0.7,0.6-1,0.6s-0.5-0.2-0.6-0.8
		c-0.5-1.7-1.2-3.2-1.9-4.2c4.6-4.9,7.5-10.4,9.7-16.4c0.5-1.1,0.8-2.4,0.9-3.6c1.8,0.5,3.1,0.9,4.7,1.6c0.6,0.2,0.8,0.5,0.8,0.9
		c0,0.3-0.2,0.5-0.6,0.9c-0.4,0.3-0.6,0.7-1.1,2c-1,2.5-1.9,4.9-3.1,7.2v25.1c0,4.9,0.1,7.4,0.1,7.6c0,0.5,0,0.5-0.5,0.5h-4.2
		c-0.5,0-0.6,0-0.6-0.5c0-0.3,0.1-2.7,0.1-7.6V116.2z M123.8,112.5c-4.9,0-6.6,0.1-6.9,0.1c-0.5,0-0.5,0-0.5-0.6v-3.9
		c0-0.5,0-0.5,0.5-0.5c0.3,0,2,0.1,6.9,0.1h17.6c4.9,0,6.6-0.1,6.9-0.1c0.5,0,0.5,0,0.5,0.5v3.9c0,0.5,0,0.6-0.5,0.6
		c-0.3,0-2-0.1-6.9-0.1h-9.4c-1.8,5.9-3.5,10.8-5.3,15.3c4.2-0.5,8.2-1,12.8-1.7c-1.2-2.2-2.4-4.1-3.7-6c-0.3-0.4-0.2-0.6,0.4-0.9
		l3-1.5c0.6-0.3,0.8-0.3,1.1,0.2c2.9,4.2,5.7,8.8,8.2,14.2c0.2,0.5,0.2,0.7-0.6,1l-3.4,1.7c-0.7,0.4-0.8,0.3-1-0.2
		c-0.6-1.5-1.2-3-2-4.4c-7.4,1.3-12.9,2.2-20.9,3.1c-1,0.1-1.6,0.2-1.9,0.4c-0.4,0.2-0.6,0.4-1,0.4c-0.4,0-0.6-0.4-0.8-0.8
		c-0.4-1.4-0.8-3-1.1-5c1.9,0,3.5,0,5,0c2.2-5.2,3.8-10.5,5.2-15.8H123.8z M126.8,99.3c-4.6,0-6.2,0.1-6.5,0.1
		c-0.6,0-0.6-0.1-0.6-0.6v-3.9c0-0.5,0-0.5,0.6-0.5c0.3,0,1.9,0.1,6.5,0.1h11.7c4.6,0,6.2-0.1,6.5-0.1c0.6,0,0.6,0,0.6,0.5v3.9
		c0,0.5,0,0.6-0.6,0.6c-0.3,0-1.9-0.1-6.5-0.1H126.8z"/>
	<path class="st2" d="M162.8,98.9c0.5,0.2,0.8,0.5,0.8,0.9c0,0.3-0.2,0.8-0.4,1.4c-0.2,0.6-0.4,2.8-0.4,4.9c0,3.2,0.1,6.8,0.9,11.4
		c0.7,4,2,7.4,4.1,7.4c1.6,0,2.9-1.8,4.8-7c1.1,1.8,2.2,2.9,3.2,3.8c0.6,0.6,0.6,1.2,0.4,1.9c-1.9,5.1-5,7.8-8.5,7.8
		c-3.9,0-8-4.6-9.4-13.1c-0.8-4.8-1.2-10-1.2-14.6c0-2.8-0.1-4.2-0.6-6.5C158.8,97.5,161.3,98.1,162.8,98.9z M186,102
		c0.2-0.1,0.4-0.2,0.5-0.2c0.2,0,0.4,0.1,0.6,0.3c4.6,4,8.6,10.9,9.8,17.1c0.1,0.7-0.1,0.9-0.5,1.1c-1.3,0.8-2.6,1.5-3.9,2
		c-0.6,0.2-1,0-1.1-0.5c-1.7-7.2-4.2-12.4-9.4-17.5C183.9,103.1,185.2,102.4,186,102z"/>
	<path class="st2" d="M216.6,96.4c-0.7-1.5-1.2-2.5-2.5-4c2.5-0.5,4.6-0.8,6-0.8c1.3,0,1.7,0.3,1.7,1c0,0.5-0.1,1,0,1.4
		c0.1,0.6,0.4,1.3,0.8,2.5c0.6,1.5,1,2.7,1.7,4c4.6-1,7.9-2.1,10.5-3.1c0.5-0.2,0.7-0.2,1,0.3c0.5,1,1,2.7,1.2,3.9
		c0.1,0.5,0,0.8-0.4,0.8c-2.4,0.9-5.3,1.8-10,2.9c2.1,3.7,4.6,7.1,7.7,10.6c0.4,0.4,0.9,0.8,1.3,1.1c0.3,0.2,0.5,0.4,0.5,0.7
		c0,0.3-0.1,0.6-0.3,0.8c-0.3,0.9-1.4,2.5-2,3.3c-0.4,0.5-0.6,0.8-1,0.8c-0.2,0-0.4-0.1-0.8-0.4c-0.6-0.5-1.1-0.8-2.1-1.3
		c-3.2-1.7-6.9-2.6-10.6-2.6c-5.2,0-8.4,1.6-8.4,4.7c0,3.8,4.6,5.3,12.4,5.3c2.5,0,5.4-0.2,8-0.7c-0.2,2-0.7,4.2-1.1,5.4
		c-0.1,0.5-0.3,0.6-0.9,0.7c-0.9,0.1-3.5,0.3-5.6,0.3c-11.8,0-18.2-3.8-18.2-10.4c0-5.7,4.9-9.7,13.2-9.7c4.1,0,6.9,0.6,8.9,1.3
		c-2.5-2.3-4.5-5-6.5-8.9c-3.2,0.5-6.1,1-9.7,1.2c-1.4,0.1-3.7,0.2-4.9,0.2c-0.5,0-0.7-0.3-0.8-0.9c-0.5-1.6-0.8-2.6-1.1-4.5
		c2.6,0.1,4.6,0.1,6.3,0c2.1-0.1,4.6-0.4,7.9-1C218.1,99.7,217.4,98.3,216.6,96.4z"/>
	<path class="st2" d="M254.7,101c-0.1-2.5-0.2-3.3-0.7-5.3c2.5,0.2,4.8,0.5,6,0.8c0.6,0.1,1.1,0.6,1.1,1c0,0.4-0.1,0.7-0.3,1.1
		c-0.3,0.8-0.4,1.4-0.5,2.2c0,1.2,0,3.1-0.1,4.8c3.5-0.5,8.8-1,12.4-1.4c0-2.5,0-5.2,0-7c0-1.9-0.1-3.8-0.6-5.7
		c3.1,0.3,4.8,0.6,6.1,1c0.7,0.2,0.9,0.5,0.9,1c0,0.4-0.2,0.8-0.3,1c-0.2,0.8-0.5,1.4-0.5,2.2c-0.1,2.7-0.1,4.7-0.2,7
		c4.1-0.3,7.1-0.5,9.8-0.5c0.4,0,0.6,0,0.6,0.5c0,1.4,0.1,2.8,0,4.1c0,0.6-0.1,0.7-0.7,0.7c-3.3,0-6.7,0.1-10,0.4
		c-0.1,3.3-0.3,5.8-0.6,7.7c-0.6,3.9-2.8,5.6-6.6,5.6c-0.9,0-2.1,0-3.1-0.2c-0.8,0-1-0.4-1-1.3c-0.1-1.7-0.4-2.9-1.1-4.5
		c1.7,0.5,3,0.6,4.3,0.6c1.4,0,2.1-0.4,2.4-2.1c0.2-1.6,0.3-3.4,0.4-5.3c-4,0.3-8.4,0.8-12.2,1.4c-0.1,5.5-0.1,8.5,0.1,11.3
		c0.3,4.1,1.4,4.9,7.5,4.9c4.5,0,9.3-0.4,13-1c0.8,0,0.9,0.1,1,0.7c0.2,1,0.3,3.2,0.3,4.2c0,0.6-0.2,0.9-0.6,0.9
		c-2.3,0.3-8.5,0.8-12.6,0.8c-10.1,0-13.1-2.1-13.7-8.7c-0.2-2.7-0.4-6.9-0.4-12.2c-2.5,0.4-4.1,0.7-6.1,1c-0.5,0.2-1.4,0.4-2.2,0.8
		c-0.6,0.3-1,0.1-1.3-0.5c-0.6-1.2-1.1-3.3-1.4-5c1,0,3.2-0.2,5.4-0.5c1.4-0.2,3.8-0.7,5.7-1V101z"/>
	<path class="st2" d="M317.6,101.7c-6.1,1.2-11.5,2.2-16.8,3.3c-1.9,0.4-2.4,0.5-3.1,0.8c-0.4,0.1-0.7,0.4-1.1,0.4
		c-0.3,0-0.8-0.3-0.9-0.8c-0.7-1.3-1.2-3.1-1.9-5.4c2.5-0.1,4-0.3,8-0.8c6.2-0.9,17.2-2.5,30.1-4.2c0.8-0.1,1,0.2,1,0.5
		c0.3,1.2,0.5,3,0.6,4.4c0,0.6-0.3,0.8-1,0.8c-2.4,0.1-4,0.4-6.1,1.1c-8.5,2.9-12.8,8.8-12.8,14.8c0,6.5,4.6,10,13.3,10.5
		c0.8,0,1.1,0.2,1.1,0.8c0,1.3-0.2,3-0.5,4.3c-0.2,0.8-0.4,1.1-1,1.1c-8.8,0-18.5-5.1-18.5-15.5c0-7.1,3.6-11.9,9.6-15.9V101.7z"/>
	<path class="st2" d="M364.9,95.2c0.2,0.2,0.4,0.6,0.4,0.8c0,0.5-0.2,0.8-0.7,1c-0.6,0.3-1.3,0.8-2.4,1.8c-4.3,3.8-9.8,9-13.7,13
		c-0.5,0.5-0.6,0.8-0.6,1.1c0,0.3,0.2,0.5,0.6,0.9c6.5,4.7,13.3,10.2,18.6,15.8c0.2,0.2,0.4,0.4,0.4,0.6s-0.1,0.4-0.4,0.6
		c-1.1,1.2-2.6,2.7-3.4,3.5c-0.3,0.2-0.5,0.4-0.7,0.4c-0.2,0-0.3-0.1-0.6-0.4c-5.8-6.5-11.4-11.7-18.2-16.9
		c-1.9-1.5-2.7-2.5-2.7-4.2s0.9-2.8,2.5-4.4c4.2-4.6,8.4-8.8,12.7-13.5c1.4-1.5,2.1-2.5,2.7-3.8C361.6,92.7,363.5,94,364.9,95.2z"/>
	<path class="st2" d="M400.3,99c0.5-0.1,0.8,0.1,0.8,0.5c0.2,1.1,0.3,2.6,0.3,3.6c0.1,0.6-0.1,0.8-0.8,1c-3.1,0.8-5.7,1.4-8.7,1.9
		c-3.4,11.1-6,18.8-9.2,27.1c-0.2,0.7-0.5,0.7-1.1,0.5c-0.5-0.2-2.9-1.2-4-1.8c-0.4-0.2-0.5-0.7-0.4-1c3.8-8.8,6.2-15.4,8.7-23.7
		c-2.9,0.3-6.4,0.6-8.8,0.6c-0.8,0-0.9-0.2-1-0.8c-0.2-1-0.5-2.8-0.7-4.5c1.1,0.2,1.7,0.2,3.7,0.2c2.5,0,5.2-0.2,8.1-0.5
		c0.5-2,0.9-4.2,1.2-6.3c0.2-1.5,0.3-3,0.3-4.6c2.6,0.4,4.7,0.8,6.3,1.4c0.4,0.2,0.5,0.5,0.5,0.8c0,0.2,0,0.5-0.2,0.8
		c-0.4,0.7-0.8,1.2-1,2c-0.5,1.8-0.9,3.5-1.2,4.8C395.1,100.4,397.8,99.7,400.3,99z M398.3,122.9c0.5,0,0.7,0.2,0.8,0.7
		c0.4,3.7,2.8,4.7,7.7,4.7c2.8,0,6.4-0.5,8.4-0.7c0.4,0,0.6,0.1,0.6,0.5c0.2,1.3,0.4,3,0.4,4.4c0.1,0.6,0,0.8-0.8,0.8
		c-1.7,0.2-4.7,0.5-7,0.5c-6.4,0-9.8-0.9-12.1-3.2c-1.6-1.6-2.2-4-2.2-6.9C395.6,123.3,397.7,122.9,398.3,122.9z M397.8,109.7
		c0-0.7,0.1-0.8,0.9-1c3.2-0.6,6.9-1.1,9.8-1.1c2,0,4.1,0.2,5.9,0.5c0.7,0.1,0.8,0.1,0.8,0.8c0.1,1.2,0.1,2.7,0.1,4
		c0,0.8-0.2,1-1,0.9c-1.8-0.4-4-0.6-6.2-0.6c-3,0-6.8,0.5-10.1,1.2C397.9,112.5,397.8,110.7,397.8,109.7z M409.3,95.4
		c0.2-0.2,0.5-0.2,0.8,0.1c1.6,1.2,3.4,3.2,4.8,5.4c0.2,0.3,0.2,0.5-0.1,0.8l-2.1,1.5c-0.4,0.2-0.6,0.2-0.9-0.1
		c-1.5-2.3-3.1-4.2-5-5.8L409.3,95.4z M413.8,92.2c0.3-0.2,0.4-0.1,0.8,0.1c1.8,1.4,3.7,3.4,4.8,5.2c0.2,0.3,0.2,0.6-0.2,0.9l-2,1.6
		c-0.4,0.3-0.7,0.1-0.8-0.2c-1.3-2.2-3-4-5-5.8L413.8,92.2z"/>
	<path class="st2" d="M437.5,96.4c-0.7-1.5-1.2-2.5-2.5-4c2.5-0.5,4.6-0.8,6-0.8c1.3,0,1.7,0.3,1.7,1c0,0.5,0,1,0,1.4
		c0.2,0.6,0.3,1.3,0.8,2.5c0.6,1.5,1,2.7,1.7,4c4.6-1,7.9-2.1,10.5-3.1c0.5-0.2,0.6-0.2,0.9,0.3c0.5,1,1,2.7,1.2,3.9
		c0.2,0.5,0,0.8-0.4,0.8c-2.4,0.9-5.3,1.8-10,2.9c2,3.7,4.5,7.1,7.7,10.6c0.4,0.4,0.8,0.8,1.3,1.1c0.3,0.2,0.5,0.4,0.5,0.7
		c0,0.3-0.1,0.6-0.3,0.8c-0.4,0.9-1.4,2.5-2,3.3c-0.4,0.5-0.7,0.8-1,0.8c-0.2,0-0.4-0.1-0.8-0.4c-0.7-0.5-1.1-0.8-2.1-1.3
		c-3.2-1.7-6.9-2.6-10.6-2.6c-5.2,0-8.4,1.6-8.4,4.7c0,3.8,4.6,5.3,12.4,5.3c2.5,0,5.4-0.2,8-0.7c-0.2,2-0.7,4.2-1,5.4
		c-0.2,0.5-0.3,0.6-1,0.7c-0.9,0.1-3.5,0.3-5.5,0.3c-11.8,0-18.2-3.8-18.2-10.4c0-5.7,4.9-9.7,13.2-9.7c4,0,6.9,0.6,8.9,1.3
		c-2.5-2.3-4.5-5-6.5-8.9c-3.2,0.5-6.1,1-9.7,1.2c-1.3,0.1-3.7,0.2-4.9,0.2c-0.5,0-0.7-0.3-0.8-0.9c-0.5-1.6-0.8-2.6-1.1-4.5
		c2.5,0.1,4.6,0.1,6.3,0c2.1-0.1,4.6-0.4,7.9-1C439,99.7,438.3,98.3,437.5,96.4z"/>
	<path class="st2" d="M473.6,98.9c0.5,0.2,0.8,0.5,0.8,0.9c0,0.3-0.2,0.8-0.4,1.4c-0.2,0.6-0.5,2.8-0.5,4.9c0,3.2,0.1,6.8,0.9,11.4
		c0.7,4,2,7.4,4.1,7.4c1.6,0,2.9-1.8,4.8-7c1.1,1.8,2.2,2.9,3.2,3.8c0.6,0.6,0.6,1.2,0.3,1.9c-1.9,5.1-5,7.8-8.5,7.8
		c-3.9,0-8-4.6-9.4-13.1c-0.8-4.8-1.2-10-1.2-14.6c0-2.8-0.1-4.2-0.6-6.5C469.6,97.5,472.1,98.1,473.6,98.9z M496.8,102
		c0.2-0.1,0.4-0.2,0.6-0.2c0.2,0,0.3,0.1,0.5,0.3c4.5,4,8.5,10.9,9.8,17.1c0.2,0.7-0.1,0.9-0.5,1.1c-1.3,0.8-2.6,1.5-3.9,2
		c-0.6,0.2-1,0-1.1-0.5c-1.7-7.2-4.2-12.4-9.3-17.5C494.7,103.1,496,102.4,496.8,102z"/>
</g>
</svg>
